<?xml version="1.0" encoding="UTF-8" standalone="no"?>
<!-- Generator: Adobe Illustrator 16.0.3, SVG Export Plug-In . SVG Version: 6.00 Build 0)  -->

<svg
   xmlns:dc="http://purl.org/dc/elements/1.1/"
   xmlns:cc="http://creativecommons.org/ns#"
   xmlns:rdf="http://www.w3.org/1999/02/22-rdf-syntax-ns#"
   xmlns:svg="http://www.w3.org/2000/svg"
   xmlns="http://www.w3.org/2000/svg"
   xmlns:sodipodi="http://sodipodi.sourceforge.net/DTD/sodipodi-0.dtd"
   xmlns:inkscape="http://www.inkscape.org/namespaces/inkscape"
   version="1.1"
   x="0px"
   y="0px"
   width="329.63947"
   height="83.951431"
   viewBox="0 0 329.63946 83.951427"
   enable-background="new 0 0 841.89 595.28"
   xml:space="preserve"
   id="svg211"
   sodipodi:docname="CONECTAGOV_APROVADA_CURVAScs6.svg"
   inkscape:version="0.92.2 (5c3e80d, 2017-08-06)"><metadata
     id="metadata217"><rdf:RDF><cc:Work
         rdf:about=""><dc:format>image/svg+xml</dc:format><dc:type
           rdf:resource="http://purl.org/dc/dcmitype/StillImage" /><dc:title></dc:title></cc:Work></rdf:RDF></metadata><defs
     id="defs215" /><sodipodi:namedview
     pagecolor="#ffffff"
     bordercolor="#666666"
     borderopacity="1"
     objecttolerance="10"
     gridtolerance="10"
     guidetolerance="10"
     inkscape:pageopacity="0"
     inkscape:pageshadow="2"
     inkscape:window-width="1613"
     inkscape:window-height="995"
     id="namedview213"
     showgrid="false"
     fit-margin-top="0"
     fit-margin-left="0"
     fit-margin-right="0"
     fit-margin-bottom="0"
     inkscape:zoom="1.5858083"
     inkscape:cx="157.43899"
     inkscape:cy="57.248214"
     inkscape:window-x="67"
     inkscape:window-y="27"
     inkscape:window-maximized="1"
     inkscape:current-layer="svg211" /><g
     id="CURVAS"
     transform="translate(-256.12554,-255.66204)"><g
       id="Camada_3_cópia"><g
         id="g94"><path
           d="m 351.774,317.945 c 0.626,0 1.101,0.135 1.422,0.404 0.321,0.271 0.481,0.662 0.481,1.175 0,0.508 -0.171,0.906 -0.514,1.195 -0.344,0.288 -0.839,0.433 -1.486,0.433 h -0.56 v 2.414 H 350.6 v -5.621 z m -0.656,2.737 h 0.56 c 0.47,0 0.826,-0.103 1.068,-0.308 0.243,-0.205 0.365,-0.491 0.365,-0.858 0,-0.346 -0.112,-0.617 -0.337,-0.814 -0.224,-0.197 -0.541,-0.296 -0.951,-0.296 h -0.705 z"
           id="path2"
           inkscape:connector-curvature="0" /><path
           d="m 355.411,317.945 v 5.135 h 2.244 v 0.486 h -2.763 v -5.621 z"
           id="path4"
           inkscape:connector-curvature="0" /><path
           d="m 360.952,317.945 2.228,5.621 h -0.567 l -0.591,-1.531 h -2.868 l -0.591,1.531 h -0.534 l 2.284,-5.621 z m -1.588,3.62 h 2.471 l -1.215,-3.15 z"
           id="path6"
           inkscape:connector-curvature="0" /><path
           d="m 367.303,317.945 v 0.485 h -1.645 v 5.136 h -0.519 v -5.136 h -1.645 v -0.485 z"
           id="path8"
           inkscape:connector-curvature="0" /><path
           d="m 370.672,317.945 2.228,5.621 h -0.567 l -0.591,-1.531 h -2.868 l -0.591,1.531 h -0.534 l 2.284,-5.621 z m -1.588,3.62 h 2.471 l -1.215,-3.15 z"
           id="path10"
           inkscape:connector-curvature="0" /><path
           d="m 376.52,317.945 v 0.445 h -2.098 v 2.024 h 2.009 v 0.471 h -2.009 v 2.681 h -0.519 v -5.621 z"
           id="path12"
           inkscape:connector-curvature="0" /><path
           d="m 379.963,317.847 c 0.372,0 0.71,0.066 1.012,0.198 0.303,0.133 0.561,0.324 0.774,0.575 0.213,0.251 0.379,0.557 0.498,0.916 0.118,0.358 0.178,0.765 0.178,1.219 0,0.453 -0.06,0.859 -0.178,1.219 -0.119,0.359 -0.285,0.664 -0.498,0.915 -0.214,0.252 -0.472,0.443 -0.774,0.575 -0.302,0.133 -0.64,0.199 -1.012,0.199 -0.373,0 -0.71,-0.066 -1.013,-0.199 -0.303,-0.132 -0.562,-0.323 -0.777,-0.575 -0.217,-0.251 -0.384,-0.556 -0.503,-0.915 -0.118,-0.359 -0.178,-0.766 -0.178,-1.219 0,-0.454 0.06,-0.86 0.178,-1.219 0.119,-0.359 0.286,-0.665 0.503,-0.916 0.216,-0.251 0.475,-0.442 0.777,-0.575 0.303,-0.131 0.64,-0.198 1.013,-0.198 z m 0,0.462 c -0.286,0 -0.546,0.057 -0.778,0.17 -0.231,0.113 -0.432,0.275 -0.599,0.486 -0.168,0.21 -0.298,0.466 -0.389,0.766 -0.093,0.299 -0.138,0.639 -0.138,1.017 0,0.378 0.045,0.717 0.138,1.016 0.091,0.3 0.221,0.556 0.389,0.766 0.167,0.211 0.367,0.373 0.599,0.486 0.232,0.113 0.492,0.17 0.778,0.17 0.28,0 0.538,-0.057 0.773,-0.17 0.234,-0.113 0.436,-0.275 0.604,-0.486 0.167,-0.21 0.297,-0.466 0.389,-0.766 0.092,-0.299 0.138,-0.638 0.138,-1.016 0,-0.378 -0.046,-0.718 -0.138,-1.017 -0.092,-0.3 -0.222,-0.556 -0.389,-0.766 -0.168,-0.211 -0.369,-0.373 -0.604,-0.486 -0.235,-0.113 -0.493,-0.17 -0.773,-0.17 z"
           id="path14"
           inkscape:connector-curvature="0" /><path
           d="m 385.154,317.945 c 0.61,0 1.069,0.12 1.377,0.36 0.308,0.24 0.462,0.598 0.462,1.073 0,0.351 -0.109,0.646 -0.328,0.883 -0.219,0.237 -0.534,0.399 -0.944,0.486 0.189,0.043 0.338,0.125 0.446,0.247 0.107,0.121 0.207,0.287 0.299,0.498 l 0.924,2.073 h -0.583 l -0.835,-1.952 c -0.107,-0.243 -0.236,-0.41 -0.385,-0.502 -0.149,-0.092 -0.352,-0.138 -0.611,-0.138 h -0.551 v 2.592 h -0.519 v -5.621 h 1.248 z m -0.729,2.559 h 0.648 c 0.438,0 0.771,-0.102 1.004,-0.304 0.232,-0.203 0.349,-0.475 0.349,-0.814 0,-0.647 -0.443,-0.972 -1.328,-0.972 h -0.673 z"
           id="path16"
           inkscape:connector-curvature="0" /><path
           d="m 389.342,317.945 1.896,4.625 c 0.054,0.129 0.097,0.294 0.13,0.494 0.016,-0.162 0.054,-0.316 0.113,-0.462 l 1.992,-4.657 h 0.77 v 5.621 h -0.486 v -4.738 c 0,-0.017 -0.001,-0.037 -0.004,-0.061 -0.003,-0.024 -0.004,-0.059 -0.004,-0.102 0,-0.043 0.003,-0.092 0.008,-0.146 0.006,-0.055 0.017,-0.116 0.033,-0.187 -0.06,0.124 -0.102,0.22 -0.126,0.287 -0.024,0.067 -0.042,0.112 -0.053,0.134 l -2.033,4.812 h -0.453 l -2.001,-4.812 c -0.011,-0.026 -0.027,-0.077 -0.049,-0.149 -0.021,-0.073 -0.049,-0.164 -0.081,-0.271 0.011,0.141 0.021,0.251 0.032,0.332 0.011,0.081 0.017,0.135 0.017,0.162 v 4.738 h -0.486 v -5.621 h 0.785 z"
           id="path18"
           inkscape:connector-curvature="0" /><path
           d="m 398.301,317.945 2.228,5.621 h -0.567 l -0.591,-1.531 h -2.868 l -0.591,1.531 h -0.534 l 2.284,-5.621 z m -1.588,3.62 h 2.471 l -1.215,-3.15 z"
           id="path20"
           inkscape:connector-curvature="0" /><path
           d="m 405.152,317.945 c 1.021,0 1.792,0.236 2.313,0.708 0.521,0.473 0.782,1.163 0.782,2.07 0,0.442 -0.069,0.84 -0.207,1.19 -0.138,0.35 -0.336,0.649 -0.595,0.895 -0.26,0.246 -0.578,0.434 -0.956,0.563 -0.378,0.129 -0.808,0.194 -1.288,0.194 h -1.118 v -5.621 h 1.069 z m -0.55,5.135 h 0.64 c 0.783,0 1.386,-0.205 1.807,-0.615 0.421,-0.41 0.632,-0.985 0.632,-1.726 0,-0.771 -0.201,-1.354 -0.604,-1.745 -0.403,-0.391 -1,-0.588 -1.794,-0.588 h -0.681 z"
           id="path22"
           inkscape:connector-curvature="0" /><path
           d="m 412.427,317.945 v 0.445 h -2.22 v 2.024 h 2.098 v 0.471 h -2.098 v 2.194 h 2.269 v 0.486 h -2.787 v -5.621 h 2.738 z"
           id="path24"
           inkscape:connector-curvature="0" /><path
           d="m 417.148,317.945 v 5.621 h -0.519 v -5.621 z"
           id="path26"
           inkscape:connector-curvature="0" /><path
           d="m 419.604,317.945 2.745,4.714 c 0.017,0.027 0.038,0.071 0.065,0.134 0.026,0.063 0.062,0.147 0.105,0.255 -0.033,-0.199 -0.049,-0.367 -0.049,-0.502 v -4.601 h 0.485 v 5.621 h -0.632 l -2.786,-4.755 c -0.038,-0.06 -0.068,-0.124 -0.093,-0.194 -0.025,-0.07 -0.048,-0.143 -0.069,-0.219 0.032,0.271 0.049,0.435 0.049,0.494 v 4.674 h -0.486 v -5.621 z"
           id="path28"
           inkscape:connector-curvature="0" /><path
           d="m 427.865,317.945 v 0.485 h -1.645 v 5.136 h -0.519 v -5.136 h -1.645 v -0.485 z"
           id="path30"
           inkscape:connector-curvature="0" /><path
           d="m 431.704,317.945 v 0.445 h -2.22 v 2.024 h 2.098 v 0.471 h -2.098 v 2.194 h 2.269 v 0.486 h -2.787 v -5.621 h 2.738 z"
           id="path32"
           inkscape:connector-curvature="0" /><path
           d="m 434.604,317.945 c 0.61,0 1.069,0.12 1.377,0.36 0.308,0.24 0.462,0.598 0.462,1.073 0,0.351 -0.109,0.646 -0.328,0.883 -0.219,0.237 -0.534,0.399 -0.944,0.486 0.189,0.043 0.338,0.125 0.446,0.247 0.107,0.121 0.207,0.287 0.299,0.498 l 0.924,2.073 h -0.583 l -0.835,-1.952 c -0.107,-0.243 -0.236,-0.41 -0.385,-0.502 -0.149,-0.092 -0.352,-0.138 -0.611,-0.138 h -0.551 v 2.592 h -0.519 v -5.621 h 1.248 z m -0.729,2.559 h 0.648 c 0.438,0 0.771,-0.102 1.004,-0.304 0.232,-0.203 0.349,-0.475 0.349,-0.814 0,-0.647 -0.443,-0.972 -1.328,-0.972 h -0.673 z"
           id="path34"
           inkscape:connector-curvature="0" /><path
           d="m 440.161,317.847 c 0.372,0 0.71,0.066 1.012,0.198 0.303,0.133 0.561,0.324 0.774,0.575 0.213,0.251 0.379,0.557 0.498,0.916 0.118,0.358 0.178,0.765 0.178,1.219 0,0.453 -0.06,0.859 -0.178,1.219 -0.119,0.359 -0.285,0.664 -0.498,0.915 -0.214,0.252 -0.472,0.443 -0.774,0.575 -0.302,0.133 -0.64,0.199 -1.012,0.199 -0.373,0 -0.71,-0.066 -1.013,-0.199 -0.303,-0.132 -0.562,-0.323 -0.777,-0.575 -0.217,-0.251 -0.384,-0.556 -0.503,-0.915 -0.118,-0.359 -0.178,-0.766 -0.178,-1.219 0,-0.454 0.06,-0.86 0.178,-1.219 0.119,-0.359 0.286,-0.665 0.503,-0.916 0.216,-0.251 0.475,-0.442 0.777,-0.575 0.303,-0.131 0.64,-0.198 1.013,-0.198 z m 0,0.462 c -0.286,0 -0.546,0.057 -0.778,0.17 -0.231,0.113 -0.432,0.275 -0.599,0.486 -0.168,0.21 -0.298,0.466 -0.389,0.766 -0.093,0.299 -0.138,0.639 -0.138,1.017 0,0.378 0.045,0.717 0.138,1.016 0.091,0.3 0.221,0.556 0.389,0.766 0.167,0.211 0.367,0.373 0.599,0.486 0.232,0.113 0.492,0.17 0.778,0.17 0.28,0 0.538,-0.057 0.773,-0.17 0.234,-0.113 0.436,-0.275 0.604,-0.486 0.167,-0.21 0.297,-0.466 0.389,-0.766 0.092,-0.299 0.138,-0.638 0.138,-1.016 0,-0.378 -0.046,-0.718 -0.138,-1.017 -0.092,-0.3 -0.222,-0.556 -0.389,-0.766 -0.168,-0.211 -0.369,-0.373 -0.604,-0.486 -0.235,-0.113 -0.493,-0.17 -0.773,-0.17 z"
           id="path36"
           inkscape:connector-curvature="0" /><path
           d="m 445.279,317.945 c 0.626,0 1.101,0.135 1.422,0.404 0.321,0.271 0.481,0.662 0.481,1.175 0,0.508 -0.171,0.906 -0.514,1.195 -0.344,0.288 -0.839,0.433 -1.486,0.433 h -0.56 v 2.414 h -0.519 v -5.621 z m -0.656,2.737 h 0.56 c 0.47,0 0.826,-0.103 1.068,-0.308 0.243,-0.205 0.365,-0.491 0.365,-0.858 0,-0.346 -0.112,-0.617 -0.337,-0.814 -0.224,-0.197 -0.541,-0.296 -0.951,-0.296 h -0.705 z"
           id="path38"
           inkscape:connector-curvature="0" /><path
           d="m 451.136,317.945 v 0.445 h -2.22 v 2.024 h 2.098 v 0.471 h -2.098 v 2.194 h 2.269 v 0.486 h -2.787 v -5.621 h 2.738 z"
           id="path40"
           inkscape:connector-curvature="0" /><path
           d="m 454.036,317.945 c 0.61,0 1.069,0.12 1.377,0.36 0.308,0.24 0.462,0.598 0.462,1.073 0,0.351 -0.109,0.646 -0.328,0.883 -0.219,0.237 -0.534,0.399 -0.944,0.486 0.189,0.043 0.338,0.125 0.446,0.247 0.107,0.121 0.207,0.287 0.299,0.498 l 0.924,2.073 h -0.583 l -0.835,-1.952 c -0.107,-0.243 -0.236,-0.41 -0.385,-0.502 -0.149,-0.092 -0.352,-0.138 -0.611,-0.138 h -0.551 v 2.592 h -0.519 v -5.621 h 1.248 z m -0.729,2.559 h 0.648 c 0.438,0 0.771,-0.102 1.004,-0.304 0.232,-0.203 0.349,-0.475 0.349,-0.814 0,-0.647 -0.443,-0.972 -1.328,-0.972 h -0.673 z"
           id="path42"
           inkscape:connector-curvature="0" /><path
           d="m 459.706,317.945 2.228,5.621 h -0.567 l -0.591,-1.531 h -2.868 l -0.591,1.531 h -0.534 l 2.284,-5.621 z m -1.588,3.62 h 2.471 l -1.215,-3.15 z"
           id="path44"
           inkscape:connector-curvature="0" /><path
           d="m 464.152,317.945 c 0.604,0 1.066,0.125 1.385,0.376 0.318,0.252 0.478,0.585 0.478,1.001 0,0.324 -0.088,0.593 -0.263,0.806 -0.176,0.214 -0.434,0.366 -0.773,0.458 0.799,0.205 1.198,0.688 1.198,1.449 0,0.228 -0.043,0.436 -0.13,0.624 -0.086,0.189 -0.213,0.35 -0.38,0.482 -0.168,0.132 -0.374,0.236 -0.62,0.312 -0.246,0.076 -0.525,0.113 -0.838,0.113 h -1.272 v -5.621 z m -0.697,2.454 h 0.632 c 0.448,0 0.788,-0.089 1.021,-0.268 0.232,-0.178 0.349,-0.427 0.349,-0.745 0,-0.308 -0.11,-0.548 -0.332,-0.721 -0.222,-0.173 -0.546,-0.26 -0.972,-0.26 h -0.697 v 1.994 z m 0,2.681 h 0.6 c 0.519,0 0.908,-0.097 1.171,-0.291 0.262,-0.194 0.393,-0.462 0.393,-0.802 0,-0.745 -0.483,-1.118 -1.45,-1.118 h -0.713 v 2.211 z"
           id="path46"
           inkscape:connector-curvature="0" /><path
           d="m 468.129,317.945 v 5.621 h -0.519 v -5.621 z"
           id="path48"
           inkscape:connector-curvature="0" /><path
           d="m 470.438,317.945 v 5.135 h 2.244 v 0.486 h -2.763 v -5.621 z"
           id="path50"
           inkscape:connector-curvature="0" /><path
           d="m 474.229,317.945 v 5.621 h -0.519 v -5.621 z"
           id="path52"
           inkscape:connector-curvature="0" /><path
           d="m 477.088,317.945 c 1.021,0 1.792,0.236 2.313,0.708 0.521,0.473 0.782,1.163 0.782,2.07 0,0.442 -0.069,0.84 -0.207,1.19 -0.138,0.35 -0.336,0.649 -0.595,0.895 -0.26,0.246 -0.578,0.434 -0.956,0.563 -0.378,0.129 -0.808,0.194 -1.288,0.194 h -1.118 v -5.621 h 1.069 z m -0.551,5.135 h 0.64 c 0.783,0 1.386,-0.205 1.807,-0.615 0.421,-0.41 0.632,-0.985 0.632,-1.726 0,-0.771 -0.201,-1.354 -0.604,-1.745 -0.403,-0.391 -1,-0.588 -1.794,-0.588 h -0.681 z"
           id="path54"
           inkscape:connector-curvature="0" /><path
           d="m 483.892,317.945 2.228,5.621 h -0.567 l -0.591,-1.531 h -2.868 l -0.591,1.531 h -0.534 l 2.284,-5.621 z m -1.588,3.62 h 2.471 l -1.215,-3.15 z"
           id="path56"
           inkscape:connector-curvature="0" /><path
           d="m 488.192,317.945 c 1.021,0 1.792,0.236 2.313,0.708 0.521,0.473 0.782,1.163 0.782,2.07 0,0.442 -0.069,0.84 -0.207,1.19 -0.138,0.35 -0.336,0.649 -0.595,0.895 -0.26,0.246 -0.578,0.434 -0.956,0.563 -0.378,0.129 -0.808,0.194 -1.288,0.194 h -1.118 v -5.621 h 1.069 z m -0.55,5.135 h 0.64 c 0.783,0 1.386,-0.205 1.807,-0.615 0.421,-0.41 0.632,-0.985 0.632,-1.726 0,-0.771 -0.201,-1.354 -0.604,-1.745 -0.403,-0.391 -1,-0.588 -1.794,-0.588 h -0.681 z"
           id="path58"
           inkscape:connector-curvature="0" /><path
           d="m 495.467,317.945 v 0.445 h -2.22 v 2.024 h 2.098 v 0.471 h -2.098 v 2.194 h 2.269 v 0.486 h -2.787 v -5.621 h 2.738 z"
           id="path60"
           inkscape:connector-curvature="0" /><path
           d="m 500.739,317.945 c 1.021,0 1.792,0.236 2.313,0.708 0.521,0.473 0.782,1.163 0.782,2.07 0,0.442 -0.069,0.84 -0.207,1.19 -0.138,0.35 -0.336,0.649 -0.595,0.895 -0.26,0.246 -0.578,0.434 -0.956,0.563 -0.378,0.129 -0.808,0.194 -1.288,0.194 h -1.118 v -5.621 h 1.069 z m -0.551,5.135 h 0.64 c 0.783,0 1.386,-0.205 1.807,-0.615 0.421,-0.41 0.632,-0.985 0.632,-1.726 0,-0.771 -0.201,-1.354 -0.604,-1.745 -0.403,-0.391 -1,-0.588 -1.794,-0.588 h -0.681 z"
           id="path62"
           inkscape:connector-curvature="0" /><path
           d="m 507.431,317.847 c 0.372,0 0.71,0.066 1.012,0.198 0.303,0.133 0.561,0.324 0.774,0.575 0.213,0.251 0.379,0.557 0.498,0.916 0.118,0.358 0.178,0.765 0.178,1.219 0,0.453 -0.06,0.859 -0.178,1.219 -0.119,0.359 -0.285,0.664 -0.498,0.915 -0.214,0.252 -0.472,0.443 -0.774,0.575 -0.302,0.133 -0.64,0.199 -1.012,0.199 -0.373,0 -0.71,-0.066 -1.013,-0.199 -0.303,-0.132 -0.562,-0.323 -0.777,-0.575 -0.217,-0.251 -0.384,-0.556 -0.503,-0.915 -0.118,-0.359 -0.178,-0.766 -0.178,-1.219 0,-0.454 0.06,-0.86 0.178,-1.219 0.119,-0.359 0.286,-0.665 0.503,-0.916 0.216,-0.251 0.475,-0.442 0.777,-0.575 0.303,-0.131 0.64,-0.198 1.013,-0.198 z m 0,0.462 c -0.286,0 -0.546,0.057 -0.778,0.17 -0.231,0.113 -0.432,0.275 -0.599,0.486 -0.168,0.21 -0.298,0.466 -0.389,0.766 -0.093,0.299 -0.138,0.639 -0.138,1.017 0,0.378 0.045,0.717 0.138,1.016 0.091,0.3 0.221,0.556 0.389,0.766 0.167,0.211 0.367,0.373 0.599,0.486 0.232,0.113 0.492,0.17 0.778,0.17 0.28,0 0.538,-0.057 0.773,-0.17 0.234,-0.113 0.436,-0.275 0.604,-0.486 0.167,-0.21 0.297,-0.466 0.389,-0.766 0.092,-0.299 0.138,-0.638 0.138,-1.016 0,-0.378 -0.046,-0.718 -0.138,-1.017 -0.092,-0.3 -0.222,-0.556 -0.389,-0.766 -0.168,-0.211 -0.369,-0.373 -0.604,-0.486 -0.235,-0.113 -0.493,-0.17 -0.773,-0.17 z"
           id="path64"
           inkscape:connector-curvature="0" /><path
           d="m 517.871,318.681 c -0.416,-0.205 -0.881,-0.308 -1.394,-0.308 -0.351,0 -0.667,0.056 -0.947,0.166 -0.281,0.111 -0.522,0.269 -0.726,0.475 -0.202,0.205 -0.357,0.452 -0.466,0.74 -0.107,0.289 -0.161,0.615 -0.161,0.977 0,0.367 0.057,0.699 0.17,0.996 0.113,0.297 0.273,0.551 0.481,0.762 0.208,0.21 0.461,0.372 0.758,0.486 0.297,0.113 0.629,0.17 0.996,0.17 0.389,0 0.734,-0.067 1.037,-0.203 v -1.943 h -1.288 v -0.454 h 1.814 v 2.746 c -0.497,0.2 -1.034,0.3 -1.612,0.3 -0.372,0 -0.707,-0.042 -1.004,-0.126 -0.298,-0.083 -0.573,-0.22 -0.826,-0.409 -0.356,-0.259 -0.628,-0.585 -0.814,-0.979 -0.186,-0.394 -0.279,-0.837 -0.279,-1.328 0,-0.643 0.181,-1.227 0.543,-1.75 0.227,-0.324 0.542,-0.585 0.947,-0.781 0.405,-0.197 0.861,-0.296 1.369,-0.296 0.54,0 1.042,0.092 1.507,0.275 z"
           id="path66"
           inkscape:connector-curvature="0" /><path
           d="m 521.93,317.847 c 0.372,0 0.71,0.066 1.012,0.198 0.303,0.133 0.561,0.324 0.774,0.575 0.213,0.251 0.379,0.557 0.498,0.916 0.118,0.358 0.178,0.765 0.178,1.219 0,0.453 -0.06,0.859 -0.178,1.219 -0.119,0.359 -0.285,0.664 -0.498,0.915 -0.214,0.252 -0.472,0.443 -0.774,0.575 -0.302,0.133 -0.64,0.199 -1.012,0.199 -0.373,0 -0.71,-0.066 -1.013,-0.199 -0.303,-0.132 -0.562,-0.323 -0.777,-0.575 -0.217,-0.251 -0.384,-0.556 -0.503,-0.915 -0.118,-0.359 -0.178,-0.766 -0.178,-1.219 0,-0.454 0.06,-0.86 0.178,-1.219 0.119,-0.359 0.286,-0.665 0.503,-0.916 0.216,-0.251 0.475,-0.442 0.777,-0.575 0.303,-0.131 0.64,-0.198 1.013,-0.198 z m 0,0.462 c -0.286,0 -0.546,0.057 -0.778,0.17 -0.231,0.113 -0.432,0.275 -0.599,0.486 -0.168,0.21 -0.298,0.466 -0.389,0.766 -0.093,0.299 -0.138,0.639 -0.138,1.017 0,0.378 0.045,0.717 0.138,1.016 0.091,0.3 0.221,0.556 0.389,0.766 0.167,0.211 0.367,0.373 0.599,0.486 0.232,0.113 0.492,0.17 0.778,0.17 0.28,0 0.538,-0.057 0.773,-0.17 0.234,-0.113 0.436,-0.275 0.604,-0.486 0.167,-0.21 0.297,-0.466 0.389,-0.766 0.092,-0.299 0.138,-0.638 0.138,-1.016 0,-0.378 -0.046,-0.718 -0.138,-1.017 -0.092,-0.3 -0.222,-0.556 -0.389,-0.766 -0.168,-0.211 -0.369,-0.373 -0.604,-0.486 -0.235,-0.113 -0.493,-0.17 -0.773,-0.17 z"
           id="path68"
           inkscape:connector-curvature="0" /><path
           d="m 525.792,317.945 1.799,5.046 1.879,-5.046 h 0.526 l -2.138,5.621 h -0.56 l -2.073,-5.621 z"
           id="path70"
           inkscape:connector-curvature="0" /><path
           d="m 533.804,317.945 v 0.445 h -2.22 v 2.024 h 2.098 v 0.471 h -2.098 v 2.194 h 2.269 v 0.486 h -2.787 v -5.621 h 2.738 z"
           id="path72"
           inkscape:connector-curvature="0" /><path
           d="m 536.703,317.945 c 0.61,0 1.069,0.12 1.377,0.36 0.308,0.24 0.462,0.598 0.462,1.073 0,0.351 -0.109,0.646 -0.328,0.883 -0.219,0.237 -0.534,0.399 -0.944,0.486 0.189,0.043 0.338,0.125 0.446,0.247 0.107,0.121 0.207,0.287 0.299,0.498 l 0.924,2.073 h -0.583 l -0.835,-1.952 c -0.107,-0.243 -0.236,-0.41 -0.385,-0.502 -0.149,-0.092 -0.352,-0.138 -0.611,-0.138 h -0.551 v 2.592 h -0.519 v -5.621 h 1.248 z m -0.729,2.559 h 0.648 c 0.438,0 0.771,-0.102 1.004,-0.304 0.232,-0.203 0.349,-0.475 0.349,-0.814 0,-0.647 -0.443,-0.972 -1.328,-0.972 h -0.673 z"
           id="path74"
           inkscape:connector-curvature="0" /><path
           d="m 540.77,317.945 2.745,4.714 c 0.017,0.027 0.038,0.071 0.065,0.134 0.026,0.063 0.062,0.147 0.105,0.255 -0.033,-0.199 -0.049,-0.367 -0.049,-0.502 v -4.601 h 0.485 v 5.621 h -0.632 l -2.786,-4.755 c -0.038,-0.06 -0.068,-0.124 -0.093,-0.194 -0.025,-0.07 -0.048,-0.143 -0.069,-0.219 0.032,0.271 0.049,0.435 0.049,0.494 v 4.674 h -0.486 v -5.621 z"
           id="path76"
           inkscape:connector-curvature="0" /><path
           d="m 548.067,317.847 c 0.372,0 0.71,0.066 1.012,0.198 0.303,0.133 0.561,0.324 0.774,0.575 0.213,0.251 0.379,0.557 0.498,0.916 0.118,0.358 0.178,0.765 0.178,1.219 0,0.453 -0.06,0.859 -0.178,1.219 -0.119,0.359 -0.285,0.664 -0.498,0.915 -0.214,0.252 -0.472,0.443 -0.774,0.575 -0.302,0.133 -0.64,0.199 -1.012,0.199 -0.373,0 -0.71,-0.066 -1.013,-0.199 -0.303,-0.132 -0.562,-0.323 -0.777,-0.575 -0.217,-0.251 -0.384,-0.556 -0.503,-0.915 -0.118,-0.359 -0.178,-0.766 -0.178,-1.219 0,-0.454 0.06,-0.86 0.178,-1.219 0.119,-0.359 0.286,-0.665 0.503,-0.916 0.216,-0.251 0.475,-0.442 0.777,-0.575 0.303,-0.131 0.64,-0.198 1.013,-0.198 z m 0,0.462 c -0.286,0 -0.546,0.057 -0.778,0.17 -0.231,0.113 -0.432,0.275 -0.599,0.486 -0.168,0.21 -0.298,0.466 -0.389,0.766 -0.093,0.299 -0.138,0.639 -0.138,1.017 0,0.378 0.045,0.717 0.138,1.016 0.091,0.3 0.221,0.556 0.389,0.766 0.167,0.211 0.367,0.373 0.599,0.486 0.232,0.113 0.492,0.17 0.778,0.17 0.28,0 0.538,-0.057 0.773,-0.17 0.234,-0.113 0.436,-0.275 0.604,-0.486 0.167,-0.21 0.297,-0.466 0.389,-0.766 0.092,-0.299 0.138,-0.638 0.138,-1.016 0,-0.378 -0.046,-0.718 -0.138,-1.017 -0.092,-0.3 -0.222,-0.556 -0.389,-0.766 -0.168,-0.211 -0.369,-0.373 -0.604,-0.486 -0.235,-0.113 -0.492,-0.17 -0.773,-0.17 z"
           id="path78"
           inkscape:connector-curvature="0" /><path
           d="m 557.18,317.945 v 0.445 h -2.098 v 2.024 h 2.009 v 0.471 h -2.009 v 2.681 h -0.519 v -5.621 z"
           id="path80"
           inkscape:connector-curvature="0" /><path
           d="m 561.205,317.945 v 0.445 h -2.22 v 2.024 h 2.098 v 0.471 h -2.098 v 2.194 h 2.269 v 0.486 h -2.787 v -5.621 h 2.738 z"
           id="path82"
           inkscape:connector-curvature="0" /><path
           d="m 563.927,317.945 c 1.021,0 1.792,0.236 2.313,0.708 0.521,0.473 0.782,1.163 0.782,2.07 0,0.442 -0.069,0.84 -0.207,1.19 -0.138,0.35 -0.336,0.649 -0.595,0.895 -0.26,0.246 -0.578,0.434 -0.956,0.563 -0.378,0.129 -0.808,0.194 -1.288,0.194 h -1.118 v -5.621 h 1.069 z m -0.551,5.135 h 0.64 c 0.783,0 1.386,-0.205 1.807,-0.615 0.421,-0.41 0.632,-0.985 0.632,-1.726 0,-0.771 -0.201,-1.354 -0.604,-1.745 -0.403,-0.391 -1,-0.588 -1.794,-0.588 h -0.681 z"
           id="path84"
           inkscape:connector-curvature="0" /><path
           d="m 571.201,317.945 v 0.445 h -2.22 v 2.024 h 2.098 v 0.471 h -2.098 v 2.194 h 2.269 v 0.486 h -2.787 v -5.621 h 2.738 z"
           id="path86"
           inkscape:connector-curvature="0" /><path
           d="m 574.101,317.945 c 0.61,0 1.069,0.12 1.377,0.36 0.308,0.24 0.462,0.598 0.462,1.073 0,0.351 -0.109,0.646 -0.328,0.883 -0.219,0.237 -0.534,0.399 -0.944,0.486 0.189,0.043 0.338,0.125 0.446,0.247 0.107,0.121 0.207,0.287 0.299,0.498 l 0.924,2.073 h -0.583 l -0.835,-1.952 c -0.107,-0.243 -0.236,-0.41 -0.385,-0.502 -0.149,-0.092 -0.352,-0.138 -0.611,-0.138 h -0.551 v 2.592 h -0.519 v -5.621 h 1.248 z m -0.73,2.559 h 0.648 c 0.438,0 0.771,-0.102 1.004,-0.304 0.232,-0.203 0.349,-0.475 0.349,-0.814 0,-0.647 -0.443,-0.972 -1.328,-0.972 h -0.673 z"
           id="path88"
           inkscape:connector-curvature="0" /><path
           d="m 579.771,317.945 2.228,5.621 h -0.567 l -0.591,-1.531 h -2.868 l -0.591,1.531 h -0.534 l 2.284,-5.621 z m -1.588,3.62 h 2.471 l -1.215,-3.15 z"
           id="path90"
           inkscape:connector-curvature="0" /><path
           d="m 583.521,317.945 v 5.135 h 2.244 v 0.486 h -2.763 v -5.621 z"
           id="path92"
           inkscape:connector-curvature="0" /></g><g
         id="g116"><path
           d="m 360.736,309.635 c -7.151,0 -12.426,-5.629 -12.426,-12.779 0,-7.08 5.239,-12.851 12.532,-12.851 4.495,0 7.186,1.593 9.664,3.93 l -1.912,2.053 c -2.088,-1.982 -4.425,-3.398 -7.788,-3.398 -5.487,0 -9.593,4.426 -9.593,10.195 0,5.77 4.142,10.266 9.593,10.266 3.398,0 5.629,-1.309 8.001,-3.574 l 1.841,1.805 c -2.585,2.619 -5.417,4.353 -9.912,4.353 z"
           id="path96"
           inkscape:connector-curvature="0"
           style="fill:#4f4d4e" /><path
           d="m 383.679,309.635 c -7.54,0 -12.603,-5.912 -12.603,-12.779 0,-6.868 5.133,-12.851 12.673,-12.851 7.541,0 12.604,5.912 12.604,12.779 0,6.869 -5.134,12.851 -12.674,12.851 z m 0,-23.045 c -5.664,0 -9.699,4.531 -9.699,10.195 0,5.665 4.105,10.266 9.77,10.266 5.665,0 9.7,-4.531 9.7,-10.195 -10e-4,-5.664 -4.107,-10.266 -9.771,-10.266 z"
           id="path98"
           inkscape:connector-curvature="0"
           style="fill:#4f4d4e" /><path
           d="m 417.843,284.431 h 2.726 v 24.781 h -2.23 l -16.001,-20.321 v 20.321 h -2.726 v -24.781 h 2.619 l 15.612,19.859 z"
           id="path100"
           inkscape:connector-curvature="0"
           style="fill:#4f4d4e" /><path
           d="m 442.838,286.979 h -15.116 v 8.461 h 13.523 v 2.549 h -13.523 v 8.673 h 15.293 v 2.549 H 424.926 V 284.43 h 17.912 z"
           id="path102"
           inkscape:connector-curvature="0"
           style="fill:#4f4d4e" /><path
           d="m 457.319,309.635 c -7.151,0 -12.426,-5.629 -12.426,-12.779 0,-7.08 5.239,-12.851 12.531,-12.851 4.496,0 7.187,1.593 9.665,3.93 l -1.912,2.053 c -2.089,-1.982 -4.425,-3.398 -7.788,-3.398 -5.486,0 -9.594,4.426 -9.594,10.195 0,5.77 4.143,10.266 9.594,10.266 3.398,0 5.629,-1.309 8.001,-3.574 l 1.841,1.805 c -2.584,2.619 -5.416,4.353 -9.912,4.353 z"
           id="path104"
           inkscape:connector-curvature="0"
           style="fill:#4f4d4e" /><path
           d="m 478.846,309.211 h -2.832 v -22.197 h -8.319 v -2.584 h 19.471 v 2.584 h -8.319 v 22.197 z"
           id="path106"
           inkscape:connector-curvature="0"
           style="fill:#4f4d4e" /><path
           d="m 509.646,309.211 h -3.01 l -2.902,-6.549 h -13.487 l -2.938,6.549 h -2.867 l 11.293,-24.958 h 2.619 z m -12.639,-21.7 -5.664,12.638 h 11.293 z"
           id="path108"
           inkscape:connector-curvature="0"
           style="fill:#4f4d4e" /><path
           d="m 523.79,309.625 c -7.524,0 -12.702,-5.281 -12.702,-12.426 v -0.068 c 0,-6.869 5.351,-12.495 12.667,-12.495 4.35,0 6.973,1.174 9.492,3.313 l -3.348,4.038 c -1.864,-1.553 -3.521,-2.45 -6.316,-2.45 -3.866,0 -6.938,3.417 -6.938,7.524 v 0.069 c 0,4.418 3.037,7.663 7.316,7.663 1.934,0 3.659,-0.484 5.005,-1.449 v -3.453 h -5.35 V 295.3 h 10.493 v 10.493 c -2.484,2.106 -5.901,3.832 -10.319,3.832 z"
           id="path110"
           inkscape:connector-curvature="0"
           style="fill:#1f6cb4" /><path
           d="m 548.368,309.625 c -7.455,0 -12.806,-5.557 -12.806,-12.426 v -0.068 c 0,-6.869 5.419,-12.495 12.874,-12.495 7.456,0 12.806,5.558 12.806,12.426 v 0.069 c 0,6.868 -5.419,12.494 -12.874,12.494 z m 7.318,-12.494 c 0,-4.143 -3.038,-7.594 -7.317,-7.594 -4.28,0 -7.248,3.383 -7.248,7.524 v 0.069 c 0,4.142 3.037,7.592 7.316,7.592 4.28,0 7.249,-3.381 7.249,-7.524 z"
           id="path112"
           inkscape:connector-curvature="0"
           style="fill:#1f6cb4" /><path
           d="m 575.775,309.383 h -4.693 l -9.769,-24.333 h 5.868 l 6.316,17.017 6.315,-17.017 h 5.73 z"
           id="path114"
           inkscape:connector-curvature="0"
           style="fill:#1f6cb4" /></g></g><g
       id="Camada_2_cópia"><linearGradient
         id="SVGID_1_"
         gradientUnits="userSpaceOnUse"
         x1="-482.15631"
         y1="-412.79001"
         x2="-437.14331"
         y2="-412.79001"
         gradientTransform="matrix(0.9999,-0.0143,0.0143,0.9999,793.5273,703.3647)"><stop
           offset="0"
           style="stop-color:#83BB26"
           id="stop119" /><stop
           offset="1"
           style="stop-color:#00873A"
           id="stop121" /></linearGradient><path
         d="m 338.809,298.72 -20.054,11.959 c -1.197,0.716 -2.516,0.275 -2.708,-2.362 l -0.319,-22.25 c 0.051,-1.784 1.426,-2.877 2.643,-2.153 l 20.39,11.359 c 1.827,0.992 1.667,2.59 0.048,3.447 z"
         id="path124"
         inkscape:connector-curvature="0"
         style="clip-rule:evenodd;fill:url(#SVGID_1_);fill-rule:evenodd" /><linearGradient
         id="SVGID_2_"
         gradientUnits="userSpaceOnUse"
         x1="695.94733"
         y1="2884.3047"
         x2="740.96021"
         y2="2884.3047"
         gradientTransform="matrix(-0.7071,0.7071,-0.7071,-0.7071,2862.3535,1812.3501)"><stop
           offset="0.3351"
           style="stop-color:#FAB600"
           id="stop126" /><stop
           offset="0.7658"
           style="stop-color:#FFEA00"
           id="stop128" /></linearGradient><path
         d="m 306.037,287.297 6.049,-22.553 c 0.359,-1.347 1.611,-1.951 3.588,-0.193 l 15.734,15.734 c 1.207,1.315 0.982,3.057 -0.395,3.386 l -22.539,6.063 c -2.001,0.564 -3,-0.694 -2.437,-2.437 z"
         id="path131"
         inkscape:connector-curvature="0"
         style="clip-rule:evenodd;fill:url(#SVGID_2_);fill-rule:evenodd" /><linearGradient
         id="SVGID_3_"
         gradientUnits="userSpaceOnUse"
         x1="1618.3555"
         y1="-515.71527"
         x2="1663.3647"
         y2="-515.71527"
         gradientTransform="matrix(-0.0143,-0.9999,0.9999,-0.0143,837.0815,1901.04)"><stop
           offset="0"
           style="stop-color:#83BB26"
           id="stop133" /><stop
           offset="1"
           style="stop-color:#00873A"
           id="stop135" /></linearGradient><path
         d="m 299.485,256.93 11.959,20.055 c 0.716,1.197 0.275,2.515 -2.362,2.708 l -22.25,0.319 c -1.784,-0.05 -2.877,-1.426 -2.153,-2.643 l 11.359,-20.389 c 0.991,-1.829 2.589,-1.668 3.447,-0.05 z"
         id="path138"
         inkscape:connector-curvature="0"
         style="clip-rule:evenodd;fill:url(#SVGID_3_);fill-rule:evenodd" /><g
         id="g147"><linearGradient
           id="SVGID_4_"
           gradientUnits="userSpaceOnUse"
           x1="-1602.0635"
           y1="613.9375"
           x2="-1557.0532"
           y2="613.9375"
           gradientTransform="matrix(0.7071,0.7071,0.7071,-0.7071,964.1533,1831.8979)"><stop
             offset="0.3351"
             style="stop-color:#FAB600"
             id="stop140" /><stop
             offset="0.7658"
             style="stop-color:#FFEA00"
             id="stop142" /></linearGradient><path
           d="m 290.167,287.297 -6.049,-22.553 c -0.359,-1.347 -1.611,-1.951 -3.588,-0.193 l -15.734,15.734 c -1.208,1.315 -0.983,3.057 0.395,3.386 l 22.538,6.063 c 2.003,0.564 3.001,-0.694 2.438,-2.437 z"
           id="path145"
           inkscape:connector-curvature="0"
           style="clip-rule:evenodd;fill:url(#SVGID_4_);fill-rule:evenodd" /></g><linearGradient
         id="SVGID_5_"
         gradientUnits="userSpaceOnUse"
         x1="1689.6611"
         y1="-381.7305"
         x2="1734.6722"
         y2="-381.7305"
         gradientTransform="matrix(-0.9999,-0.0143,-0.0143,0.9999,1974.7197,703.3647)"><stop
           offset="0"
           style="stop-color:#83BB26"
           id="stop149" /><stop
           offset="1"
           style="stop-color:#00873A"
           id="stop151" /></linearGradient><path
         d="m 257.394,298.72 20.055,11.959 c 1.196,0.716 2.515,0.275 2.707,-2.362 l 0.319,-22.25 c -0.051,-1.784 -1.426,-2.877 -2.643,-2.153 l -20.389,11.359 c -1.828,0.992 -1.668,2.59 -0.049,3.447 z"
         id="path154"
         inkscape:connector-curvature="0"
         style="clip-rule:evenodd;fill:url(#SVGID_5_);fill-rule:evenodd" /><g
         id="g163"><linearGradient
           id="SVGID_6_"
           gradientUnits="userSpaceOnUse"
           x1="-56.861801"
           y1="-931.26508"
           x2="-11.8516"
           y2="-931.26508"
           gradientTransform="matrix(0.7071,-0.7071,0.7071,0.7071,964.1533,949.9302)"><stop
             offset="0.3351"
             style="stop-color:#FAB600"
             id="stop156" /><stop
             offset="0.7658"
             style="stop-color:#FFEA00"
             id="stop158" /></linearGradient><path
           d="m 290.167,309.306 -6.049,22.553 c -0.359,1.347 -1.611,1.95 -3.588,0.192 l -15.734,-15.734 c -1.208,-1.314 -0.983,-3.057 0.395,-3.386 l 22.538,-6.063 c 2.003,-0.563 3.001,0.696 2.438,2.438 z"
           id="path161"
           inkscape:connector-curvature="0"
           style="clip-rule:evenodd;fill:url(#SVGID_6_);fill-rule:evenodd" /></g><linearGradient
         id="SVGID_7_"
         gradientUnits="userSpaceOnUse"
         x1="2241.8574"
         y1="1339.8105"
         x2="2286.8687"
         y2="1339.8105"
         gradientTransform="matrix(-0.7071,-0.7071,-0.7071,0.7071,2862.3535,969.4771)"><stop
           offset="0.3351"
           style="stop-color:#FAB600"
           id="stop165" /><stop
           offset="0.7658"
           style="stop-color:#FFEA00"
           id="stop167" /></linearGradient><path
         d="m 305.036,309.306 6.049,22.553 c 0.359,1.347 1.611,1.95 3.588,0.192 l 15.734,-15.734 c 1.207,-1.314 0.982,-3.057 -0.395,-3.386 l -22.539,-6.063 c -2.001,-0.563 -3,0.696 -2.437,2.438 z"
         id="path170"
         inkscape:connector-curvature="0"
         style="clip-rule:evenodd;fill:url(#SVGID_7_);fill-rule:evenodd" /><linearGradient
         id="SVGID_8_"
         gradientUnits="userSpaceOnUse"
         x1="-407.04639"
         y1="-544.68073"
         x2="-362.03519"
         y2="-544.68073"
         gradientTransform="matrix(-0.0143,0.9999,0.9999,0.0143,837.0815,719.8486)"><stop
           offset="0"
           style="stop-color:#83BB26"
           id="stop172" /><stop
           offset="1"
           style="stop-color:#00873A"
           id="stop174" /></linearGradient><path
         d="m 299.485,338.345 11.959,-20.055 c 0.716,-1.196 0.275,-2.515 -2.362,-2.708 l -22.25,-0.318 c -1.784,0.05 -2.877,1.426 -2.153,2.643 l 11.359,20.389 c 0.991,1.829 2.589,1.667 3.447,0.049 z"
         id="path177"
         inkscape:connector-curvature="0"
         style="clip-rule:evenodd;fill:url(#SVGID_8_);fill-rule:evenodd" /><linearGradient
         id="SVGID_9_"
         gradientUnits="userSpaceOnUse"
         x1="-477.0347"
         y1="-406.68799"
         x2="-453.6405"
         y2="-406.68799"
         gradientTransform="matrix(0.9999,-0.0143,0.0143,0.9999,793.5273,703.3647)"><stop
           offset="0"
           style="stop-color:#83BB26"
           id="stop179" /><stop
           offset="0.1985"
           style="stop-color:#76B52A"
           id="stop181" /><stop
           offset="0.5394"
           style="stop-color:#52A332"
           id="stop183" /><stop
           offset="0.9795"
           style="stop-color:#008B39"
           id="stop185" /><stop
           offset="1"
           style="stop-color:#008939"
           id="stop187" /></linearGradient><path
         d="m 328.709,304.825 -9.816,5.854 c -1.196,0.716 -2.515,0.275 -2.707,-2.362 l -0.178,-12.404 z"
         id="path190"
         inkscape:connector-curvature="0"
         style="clip-rule:evenodd;fill:url(#SVGID_9_);fill-rule:evenodd" /><linearGradient
         id="SVGID_10_"
         gradientUnits="userSpaceOnUse"
         x1="2243.9521"
         y1="1345.3955"
         x2="2280.3447"
         y2="1345.3955"
         gradientTransform="matrix(-0.7071,-0.7071,-0.7071,0.7071,2862.3535,969.4771)"><stop
           offset="0.3351"
           style="stop-color:#FAB600"
           id="stop192" /><stop
           offset="0.7658"
           style="stop-color:#FFEA00"
           id="stop194" /></linearGradient><path
         d="m 305.881,313.03 5.05,18.829 c 0.359,1.347 1.611,1.95 3.588,0.192 l 9.654,-9.653 z"
         id="path197"
         inkscape:connector-curvature="0"
         style="clip-rule:evenodd;fill:url(#SVGID_10_);fill-rule:evenodd" /><linearGradient
         id="SVGID_11_"
         gradientUnits="userSpaceOnUse"
         x1="275.5737"
         y1="298.30219"
         x2="320.7048"
         y2="298.30219"><stop
           offset="0"
           style="stop-color:#005D9E"
           id="stop199" /><stop
           offset="1"
           style="stop-color:#00A3DE"
           id="stop201" /></linearGradient><circle
         cx="298.10101"
         cy="298.302"
         r="12.127"
         id="circle204"
         style="clip-rule:evenodd;fill:url(#SVGID_11_);fill-rule:evenodd" /></g></g><g
     id="TEXTO"
     transform="translate(-256.12554,-255.66204)"><g
       id="Camada_3" /><g
       id="Camada_2" /></g></svg>